<svg width="20" height="20" viewBox="0 0 20 20" fill="none" xmlns="http://www.w3.org/2000/svg">
<path d="M10.123 19.8027C15.2988 19.8027 19.5859 15.5156 19.5859 10.3301C19.5859 5.1543 15.2891 0.867188 10.1133 0.867188C4.9375 0.867188 0.650391 5.1543 0.650391 10.3301C0.650391 15.5156 4.94727 19.8027 10.123 19.8027ZM10.123 18.1133C5.80664 18.1133 2.34961 14.6562 2.34961 10.3301C2.34961 6.01367 5.79688 2.54688 10.1133 2.54688C14.4297 2.54688 17.8965 6.01367 17.9062 10.3301C17.916 14.6562 14.4395 18.1133 10.123 18.1133ZM10.1133 16.2578C13.3457 16.2578 16.0312 13.5625 16.0312 10.3398C16.0312 7.10742 13.3359 4.41211 10.1133 4.41211C6.87109 4.41211 4.19531 7.10742 4.19531 10.3398C4.19531 13.5625 6.88086 16.2578 10.1133 16.2578Z" fill="#0A0A0A"/>
</svg>
